<?xml version="1.0" encoding="UTF-8"?>
<svg version="1.2" viewBox="0 0 371 371" xmlns="http://www.w3.org/2000/svg" xmlns:cc="http://creativecommons.org/ns#" xmlns:dc="http://purl.org/dc/elements/1.1/" xmlns:rdf="http://www.w3.org/1999/02/22-rdf-syntax-ns#">
<metadata>
<rdf:RDF>
<cc:Work rdf:about="">
<dc:format>image/svg+xml</dc:format>
<dc:type rdf:resource="http://purl.org/dc/dcmitype/StillImage"/>
<dc:title/>
</cc:Work>
</rdf:RDF>
</metadata>
<path d="m185.5 61.132c68.676 0 124.37 55.69 124.37 124.36 0 68.676-55.69 124.37-124.37 124.37-68.675 0-124.36-55.69-124.36-124.37 0-68.674 55.69-124.36 124.36-124.36zm-18.568 22.268c5.426 0 9.868 4.29 9.868 9.536v62.899c0 5.243-4.442 9.535-9.868 9.535-0.602 0-1.19-0.059-1.764-0.158-32.614 12.328-50.987 36.623-65.973 56.842-6.61 8.916-22.542-1.008-13.969-13.133 13.537-19.142 32.632-43.508 66.867-58.468 1.691-0.743 3.339-1.229 4.969-1.445v-23.113c-21.576 5.619-35.622 16.189-53.506 29.868-8.819 6.749-21.393-7.192-9.802-16.473 18.297-14.662 37.534-25.434 62.349-32.274 0.322-0.092 0.641-0.168 0.96-0.241v-13.839c-1e-3 -5.246 4.44-9.536 9.869-9.536zm37.14 0h-3e-3c-5.427 0-9.868 4.29-9.868 9.536v62.899c0 5.243 4.441 9.535 9.868 9.535h3e-3c0.599 0 1.188-0.059 1.761-0.158 32.614 12.328 50.988 36.623 65.975 56.842 6.61 8.916 22.542-1.008 13.967-13.133-13.536-19.142-32.632-43.508-66.867-58.468-1.689-0.743-3.337-1.229-4.968-1.445v-23.113c21.575 5.619 35.621 16.189 53.506 29.868 8.818 6.749 21.394-7.192 9.802-16.473-18.297-14.662-37.533-25.434-62.348-32.274-0.322-0.092-0.641-0.168-0.96-0.241v-13.839c0-5.246-4.441-9.536-9.868-9.536zm-18.542 159.75c15.471 2.73 20.678 17.756 28.135 39.537 3.593 10.502 21.953 2.932 16.556-10.899-5.126-13.129-8.189-20.226-15.147-30.809-5.683-8.64-17.437-12.491-19.621-17.634-0.078-0.177-0.155-0.342-0.233-0.49v-18.553c30.806 9.01 41.463 35.889 51.928 56.907 4.952 9.937 23.515 1 16.146-11.89-10.941-19.142-21.133-47.543-59.414-62.508-3.017-1.178-5.833-1.74-8.66-1.375v-6.962c0-5.239-4.441-9.535-9.87-9.535-5.43 0-9.869 4.295-9.869 9.535v6.881c-2.558-0.17-5.117 0.392-7.847 1.456-38.278 14.965-48.47 43.366-59.415 62.508-7.366 12.89 11.195 21.826 16.147 11.89 10.371-20.831 20.937-47.419 51.115-56.661v19.065c-2.477 5.009-13.913 8.882-19.493 17.366-6.957 10.583-10.022 17.68-15.15 30.809-5.397 13.831 12.962 21.401 16.558 10.899 7.454-21.781 12.663-36.806 28.134-39.537zm13.226 112.65v-0.603c5.918-0.921 9.846-4.331 11.787-10.25-0.688 0.309-1.37 0.509-2.056 0.614-0.569 0.202-1.249 0.254-2.049 0.157-5.242-0.21-7.857-2.959-7.857-8.256 0.57-5.603 3.702-8.513 9.396-8.713 6.495 0.404 9.856 4.278 10.082 11.614-0.912 9.169-7.35 14.323-19.303 15.437zm6.488-20.478c-0.228 6.014 0.97 8.864 3.585 8.558 1.144 0 1.822-0.148 2.056-0.455v-1.378c0.108-1.018 0.226-1.735 0.335-2.141 0-3.97-0.282-6.624-0.854-7.946-0.449-1.427-1.304-2.139-2.556-2.139-2.055-0.105-2.911 1.734-2.566 5.501zm-44.903 13.225c0.047 3.279 1.289 4.977 3.704 5.118 2.425 0.037 3.657-1.393 3.702-4.271 0.144-2.213-1.614-4.311-5.269-6.291-0.104 0.092-0.213 0.235-0.324 0.425-1.286 1.518-1.889 3.196-1.813 5.019zm1.04-15.564c-0.037 2.217 1.67 4.164 5.115 5.858 1.18-1.232 1.784-2.617 1.807-4.16-0.058-2.977-1.242-4.535-3.557-4.673-2.004 0.159-3.126 1.149-3.365 2.975zm4.016-3.973c4.841 0.179 7.389 1.995 7.65 5.463-0.04 2.404-1.904 4.104-5.608 5.103 3.962 2.373 5.968 5.002 6.029 7.895-0.394 4.7-3.589 7.056-9.588 7.051-5.479-0.181-8.293-2.199-8.439-6.051-0.059-3.078 2.032-5.11 6.258-6.1-3.863-1.892-5.722-4.229-5.576-7.014 0.284-4.134 3.372-6.253 9.274-6.347zm125.54-275.21 0.569-0.626 15.942 14.684-4.817 5.302-0.758-0.697c2.553-3.381 1.79-6.752-2.281-10.121-1.446-1.455-2.502-1.668-3.175-0.637l-5.568 6.128c2.547 2.858 5.25 2.933 8.105 0.221l0.646 0.596-8.107 8.934-0.65-0.598c2.289-3.101 2.012-5.837-0.844-8.218l-5.847 6.442c-1.151 0.976-0.809 2.187 1.047 3.633 3.317 3.315 7.142 3.976 11.464 1.979l0.753 0.697-6.083 4.508-16.152-14.88 0.563-0.624c1.795 1.649 3.217 1.754 4.271 0.31l11.607-12.779c1.264-1.254 1.036-2.668-0.685-4.254zm-192.36 0.896 0.632 0.612c-1.771 1.679-1.712 3.232 0.176 4.658l3.466 3.361c-0.654 2.361-2.511 5.255-5.565 8.682-6.197 5.962-12.442 6.233-18.736 0.804-5.621-6.268-5.753-12.59-0.392-18.95 1.021-0.918 2.661-1.906 4.925-2.974 0.826-0.43 1.339-0.752 1.543-0.96 0.546-0.419 0.497-1.216-0.143-2.38l0.719-0.74 6.305 6.123-0.614 0.63c-5.134-1.716-8.998-1.382-11.589 1.005-3.263 3.361-1.99 7.802 3.827 13.307 5.75 5.579 10.324 6.611 13.724 3.108 1.906-1.823 2.159-3.349 0.756-4.567l-2.835-2.753c-1.191-1.434-2.713-1.135-4.543 0.893l-0.631-0.613 8.975-9.246zm-37.566 57.49-0.691-0.524c1.356-1.883 1.202-3.396-0.473-4.534l-13.975-10.508c-2.502 0.181-3.859 0.494-4.063 0.945l-0.697-0.523 4.595-6.369 20.165-1.031-8.896-6.69c-1.81-1.601-3.487-1.41-5.044 0.578l-0.698-0.523 4.682-6.487 0.692 0.521c-1.072 1.983-0.829 3.378 0.729 4.182l17.208 12.941-0.596 0.826-25.524 1.543 11.782 8.863c1.835 1.745 3.511 1.553 5.043-0.568l0.695 0.522-4.934 6.836zm-7.791 13.44 0.795 0.309-4.495 12.335-0.794-0.309c0.746-2.324 0.307-3.743-1.313-4.278l-16.25-6.369c-1.584-0.619-2.82 0.15-3.707 2.309l-0.798-0.309 4.498-12.34 0.796 0.313c0.054 0.129 0.061 0.237 0.029 0.325-0.8 2.193-0.387 3.557 1.227 4.083l16.255 6.369c1.694 0.882 2.946 0.064 3.757-2.438zm-10.621 23.86 0.846 0.051-0.698 12.576-0.852-0.051c0.116-2.048-0.113-3.037-0.683-2.973-0.378-0.023-0.914 0.241-1.605 0.78l-8.588 6.392 0.785 1.072 7.079 0.422c1.779 0.297 2.736-0.771 2.875-3.204l0.852 0.05-0.703 12.574-0.853-0.05c0.124-2.243-0.709-3.369-2.506-3.374l-17.409-1.032c-1.697-0.103-2.65 0.919-2.866 3.054l-0.85-0.049 0.7-12.578 0.851 0.051c-0.233 2.427 0.839 3.618 3.208 3.565l7.781 0.461-7.464-8.66c-0.798-1.024-1.431-1.501-1.908-1.435-0.742-0.237-1.226 0.81-1.454 3.146l-0.85-0.051 0.605-10.822 0.85 0.051c-0.517 2.412 2 6.574 7.538 12.482l14.364-10.598c0.487-0.261 0.802-0.736 0.93-1.412 0.011-0.193 0.017-0.344 0.025-0.438zm-23.196 66.555-0.844 0.033-0.583-21.672 7.159-0.242 0.026 1.031c-4.203 0.53-6.089 3.425-5.666 8.688-0.035 2.052 0.545 2.955 1.758 2.723l8.275-0.279c0.274-3.816-1.558-5.805-5.49-5.967l-0.026-0.879 12.059-0.407 0.021 0.879c-3.819 0.517-5.584 2.626-5.301 6.331l8.697-0.292c1.5 0.143 2.129-0.951 1.874-3.287 0.064-4.688-2.129-7.892-6.572-9.6l-0.028-1.024 7.471 1.216 0.594 21.957-0.845 0.032c-0.069-2.436-0.98-3.532-2.753-3.278l-17.254 0.583c-1.78-0.034-2.635 1.116-2.572 3.454zm35.455 31.572-0.83 0.304c-0.453-0.98-0.829-1.567-1.11-1.776 0 0-0.066-0.032-0.183-0.088-0.609-0.512-1.638-0.496-3.104 0.039l-15.563 5.653c-2.271 0.612-3.007 2.018-2.203 4.223l-0.828 0.298-4.154-11.423c-2.01-6.128-0.971-9.984 3.128-11.576 2.414-0.78 4.608-0.324 6.566 1.352 1.48 0.919 2.938 3.662 4.392 8.229l6.61-2.4c2.424-0.47 3.143-1.928 2.149-4.366l0.829-0.304 4.301 11.835zm-24.492-0.918 9.362-3.399c-1.04-4.3-3.501-5.638-7.382-4.02-3.673 1.331-4.94 3.404-3.822 6.214 0.401 1.104 1.018 1.506 1.842 1.205zm217.69 91.404c1.455 2.936 3.307 3.933 5.551 3.016 2.207-1.009 2.7-2.827 1.5-5.45-0.825-2.058-3.314-3.189-7.467-3.399-0.056 0.126-0.092 0.305-0.109 0.522-0.508 1.923-0.331 3.698 0.525 5.311zm-5.772-14.495c0.925 2.014 3.305 3.035 7.145 3.081 0.533-1.619 0.478-3.133-0.162-4.53-1.341-2.666-3.078-3.562-5.225-2.685-1.744 1.007-2.327 2.387-1.758 4.134zm1.911-5.317c4.447-1.928 7.532-1.382 9.259 1.632 1 2.188 0.051 4.525-2.861 7.023 4.6 0.435 7.546 1.94 8.846 4.52 1.674 4.414-0.201 7.917-5.617 10.501-5.018 2.2-8.427 1.587-10.221-1.823-1.38-2.757-0.37-5.486 3.021-8.204-4.302-0.041-6.986-1.349-8.055-3.923-1.529-3.855 0.345-7.098 5.628-9.726zm-121.44 24.305-0.393 0.808-12.862-6.295 0.394-0.803c3.038 1.71 4.996 1.224 5.859-1.454l6.422-13.131c0.783-1.606 0.731-2.632-0.161-3.068-0.58-0.172-1.65-0.361-3.209-0.569l0.391-0.81 10.41 0.444 0.676 0.33-9.569 19.567c-1.537 2.238-0.857 3.897 2.042 4.981zm208.46-166.09-0.827 0.02-0.732-13.1 0.829-0.018c0.222 2.427 1.162 3.574 2.81 3.446l16.932-0.356c1.646-0.035 2.452-1.219 2.414-3.549l0.829-0.016 0.734 13.099-0.828 0.017c-0.101-0.1-0.147-0.197-0.151-0.292-0.13-2.325-1.021-3.424-2.665-3.293l-16.929 0.354c-1.853-0.163-2.655 1.073-2.416 3.688zm7.838 83.164-0.801-0.326c-0.02-0.229-0.043-0.298-0.078-0.196 0.33-1.202 0.214-2.142-0.358-2.815l-8.065-11.487-6.248-2.566c-2.168-1.327-3.635-0.649-4.4 2.041l-0.795-0.33 4.661-12.931 0.805 0.329c-1.001 2.48-0.354 4.074 1.927 4.789l5.055 2.076 13.762-2.188c1.341-0.339 2.313-1.057 2.91-2.145l0.797 0.329-4.507 12.488-0.798-0.324c0.837-2.323 0.809-3.506-0.098-3.544-0.35-0.141-0.907-0.152-1.673-0.016-0.305-0.012-0.468 0.027-0.501 0.128l-9.599 1.227 4.913 6.691c0.836 1.339 1.683 2.246 2.532 2.706 0.941 0.497 1.835-0.298 2.692-2.398l0.8 0.33-2.933 8.132zm-9.473-48.834-0.826-0.04 0.563-13.391 0.827 0.037c-0.302 2.736 0.75 4.016 3.146 3.835l18.569 0.898c0.189-4.513-1.678-7.064-5.605-7.643l0.041-1.031 7.016 0.485-0.951 22.526-7.025-0.198 0.05-1.174c4.06-0.294 6.129-2.604 6.22-6.933l-18.568-0.895c-2.368-0.499-3.521 0.668-3.457 3.524zm11.591-68.186-0.153-0.973c3.942-2.05 5.747-4.711 5.421-7.99-0.577-2.476-1.89-3.591-3.938-3.367-1.704-0.014-2.938 1.466-3.701 4.438l-1.688 5.541c-1.181 2.75-3.142 4.394-5.903 4.92-4.689 0.267-7.545-2.273-8.572-7.622-0.231-1.484-0.294-3.092-0.189-4.814 0.101-0.586 0.162-1.073 0.201-1.456-0.101-0.653-0.483-0.97-1.146-0.96l-0.152-0.978 8.447-1.333 0.152 0.973c-4.796 1.992-6.905 4.844-6.32 8.555 0.422 2.688 1.945 3.967 4.573 3.839 1.864-0.202 3.087-1.772 3.665-4.71l0.877-2.566c1.255-4.662 3.427-7.099 6.514-7.301 4.661-0.451 7.432 1.815 8.31 6.814 0.171 1.107 0.104 2.452-0.218 4.023-0.161 0.782-0.212 1.365-0.152 1.732-9e-3 0.57 0.463 0.883 1.417 0.92l0.172 1.109-7.617 1.206zm-16.558-50.639-7.813 5.688c2.633 4.12 5.519 4.862 8.668 2.207 2.925-2.127 3.488-4.416 1.712-6.864-0.958-1.472-1.812-1.818-2.567-1.031zm-7.877 26.021-0.713 0.516-4.482-6.158 4.91-13.173-0.604-0.827-5.923 4.308c-2.199 1.12-2.519 2.676-0.943 4.676l-0.711 0.518-7.415-10.19 0.714-0.518c1.218 2.012 2.801 2.189 4.739 0.543l13.39-9.741c2.024-1.357 2.342-2.92 0.943-4.675l0.709-0.518 7.07 9.714c3.994 5.665 4.292 9.801 0.869 12.405-2.607 1.898-5.489 1.583-8.657-0.944l-4.163 12.452c-0.191 0.738-0.101 1.274 0.267 1.612zm-87.163-71.859-0.161 0.811-12.945-2.11 0.157-0.81c2.42 0.307 3.737-0.367 3.968-2.002l3.306-16.61c0.323-1.618-0.663-2.657-2.944-3.126l0.161-0.812 12.948 2.11-0.164 0.81c-0.115 0.076-0.222 0.1-0.312 0.088-2.302-0.373-3.57 0.257-3.791 1.891l-3.307 16.608c-0.557 1.775 0.476 2.822 3.084 3.152zm-55.542-5.021-7e-3 -0.826c2.54-0.05 3.751-1.036 3.642-2.958l-0.053-16.623c-1.805-1.791-2.97-2.643-3.502-2.541l-2e-3 -0.823 8.57-0.174 14.167 14.696-0.037-10.577c0.203-2.292-1.063-3.457-3.817-3.495l-4e-3 -0.828 8.723-0.17 2e-3 0.823c-2.427 0.328-3.479 1.31-3.154 2.947l0.062 20.474-1.108 0.018-18.144-18.461 0.042 14.017c-0.31 2.386 0.957 3.549 3.814 3.495l1e-3 0.822-9.195 0.184zm102.2 2.149-0.408 0.716c-1.533-0.758-3.017-0.497-4.444 0.792l-17.702 13.467-0.923-0.523 1.725-22.983c0.155-1.704-0.407-2.962-1.676-3.79l0.409-0.717 11.311 6.405-0.406 0.72c-2.19-1.24-3.404-1.351-3.636-0.328-0.314 0.558-0.462 1.633-0.436 3.218l-1.135 12.135 10.02-7.57c0.046-0.083 0.18-0.215 0.406-0.404 0.796-0.598 1.287-1.051 1.468-1.372 0.588-0.826-0.112-1.848-2.079-3.071l0.406-0.717 7.1 4.022zm-120.54-23.498 0.195 0.801c-2.208 0.54-2.99 1.72-2.326 3.549l2.668 10.942c0.652 3.138 0.477 5.461-0.544 6.978-1.374 1.765-3.732 3.031-7.055 3.792-3.483 0.605-6.272 0.51-8.38-0.28-2.234-0.864-3.658-2.769-4.269-5.722l-2.768-11.353c-0.319-2.176-1.644-3.029-3.975-2.56l-0.2-0.803 13.254-2.657 0.197 0.804c-2.893 0.396-3.901 1.714-3.032 3.962l2.767 11.354c0.905 4.576 3.325 6.425 7.263 5.54 4.671-0.937 6.359-3.835 5.067-8.717l-2.539-10.413c-0.361-2.352-1.912-3.255-4.653-2.707l-0.196-0.802 8.526-1.708zm29.815-19.8c102.43 0 185.5 83.069 185.5 185.5 0 102.43-83.068 185.5-185.5 185.5-102.43 0-185.5-83.067-185.5-185.5 0-102.43 83.068-185.5 185.5-185.5zm0 7.567c98.251 0 177.93 79.681 177.93 177.93 0 98.252-79.681 177.93-177.93 177.93-98.249 0-177.93-79.682-177.93-177.93-1e-3 -98.248 79.681-177.93 177.93-177.93zm0 41.173c75.519 0 136.76 61.241 136.76 136.76 0 75.519-61.24 136.76-136.76 136.76-75.518 0-136.76-61.239-136.76-136.76 0-75.518 61.239-136.76 136.76-136.76zm0 4.087c73.261 0 132.67 59.411 132.67 132.67 0 73.261-59.411 132.67-132.67 132.67-73.26 0-132.67-59.41-132.67-132.67 0-73.26 59.41-132.67 132.67-132.67z" fill="#810000" fill-rule="evenodd"/>
</svg>
